<?xml version="1.0" encoding="UTF-8"?>
<svg id="Capa_2" data-name="Capa 2" xmlns="http://www.w3.org/2000/svg" viewBox="0 0 40.87 51">
  <defs>
    <style>
      .cls-1 {
        fill: #fff;
      }
    </style>
  </defs>
  <g id="Capa_1-2" data-name="Capa 1">
    <g>
      <path d="M36.74,18.75c-.11,0-.22,0-.33,.02-1.36,.12-2.65,.4-3.85,.83-.4,.14-.81,.29-1.24,.45l-.33,.12-.25-.24c-.2-.2-.42-.4-.65-.59l-.44-.37,.56-.59c.68-.73,1.33-1.54,1.95-2.39,.69-.95,1.25-1.97,1.65-3.04,.53-1.39,.58-2.86,.14-4.37-.38-1.29-1.03-2.5-1.93-3.58-.87-1.04-1.93-1.92-3.15-2.61-1.29-.74-2.66-1.16-4.08-1.25h-.04c-.19-.01-.39-.02-.58-.02-1.43,0-2.96,.26-4.55,.78-1.7,.55-3.41,1.34-5.08,2.34-1.62,.97-3.21,2.09-4.74,3.34-1.54,1.25-2.92,2.57-4.13,3.92-1.23,1.38-2.26,2.77-3.06,4.14-.92,1.58-1.41,3.04-1.51,4.44v.03c-.11,1.8,.39,3.41,1.44,4.65,.92,1.09,2,1.86,3.23,2.32,.2,.07,.39,.14,.59,.19l.56,.16-.19,.55c-.23,.67-.44,1.28-.61,1.82-.44,1.3-.31,2.59,.37,3.65,.45,.71,1.05,1.28,1.79,1.71l.56,.33-.42,.5c-.75,.9-1.42,1.79-2,2.66l-.02,.03c-1.32,2.04-1.95,3.85-1.92,5.54,.03,1.96,.84,3.6,2.28,4.62,1.02,.72,2.28,1.08,3.74,1.08h0c.42,0,.86-.03,1.32-.09,1.78-.23,3.63-.98,5.65-2.29,1.91-1.2,3.77-2.64,5.52-4.28,1.75-1.63,3.34-3.38,4.73-5.21,1.39-1.84,2.58-3.72,3.52-5.61,.69-1.39,1.21-2.77,1.54-4.1l.07-.28,.27-.1c.24-.09,.5-.19,.78-.29,.91-.32,1.85-.59,2.79-.8,1.1-.23,1.99-.93,2.51-1.96,.33-.65,.51-1.36,.54-2.11,.03-.66-.04-1.27-.2-1.83-.4-1.35-1.51-2.22-2.82-2.22Zm.19,5c-.17,.33-.41,.53-.74,.59-1.06,.23-2.1,.53-3.12,.89-1.02,.36-1.85,.71-2.48,1.04-.2,1.59-.74,3.25-1.61,5.01-.88,1.75-1.97,3.49-3.27,5.2-1.31,1.72-2.78,3.34-4.44,4.88-1.65,1.54-3.37,2.87-5.15,3.99-1.68,1.09-3.22,1.73-4.61,1.91-1.39,.18-2.47,0-3.25-.55-.78-.55-1.17-1.4-1.19-2.55-.02-1.16,.49-2.53,1.51-4.11,.92-1.39,2.08-2.81,3.47-4.26,1.39-1.45,2.86-2.83,4.41-4.14,1.55-1.3,3.11-2.5,4.68-3.59,1.57-1.09,3-1.98,4.29-2.68,.03-.03,.06-.17,.07-.4,.02-.23,0-.48-.05-.74-.05-.26-.14-.53-.27-.79-.13-.26-.33-.45-.59-.55-.53-.2-1.17-.15-1.93,.15-.76,.3-1.56,.74-2.4,1.34-.84,.59-1.68,1.29-2.53,2.08-.84,.79-1.64,1.57-2.38,2.33-.74,.76-1.4,1.47-1.96,2.13-.56,.66-.96,1.16-1.19,1.49-.43,.56-.85,.84-1.26,.84s-.8-.08-1.16-.25c-.46-.23-.83-.55-1.09-.97-.26-.41-.3-.9-.1-1.46,.36-1.16,.87-2.6,1.51-4.34,.64-1.73,1.33-3.5,2.06-5.3,.73-1.8,1.45-3.54,2.18-5.23,.73-1.68,1.34-3.06,1.83-4.11-1.75,1.39-3.27,2.82-4.56,4.31-1.29,1.49-2.23,2.82-2.82,4.01-.59,1.19-.79,2.13-.59,2.82s.89,.96,2.08,.79c-.13,.69-.56,1.12-1.29,1.29-.73,.17-1.5,.1-2.3-.2-.81-.3-1.53-.82-2.16-1.56-.63-.74-.91-1.69-.84-2.85,.07-.99,.45-2.1,1.16-3.32,.71-1.22,1.63-2.46,2.75-3.72,1.12-1.26,2.4-2.47,3.84-3.64,1.44-1.17,2.92-2.21,4.44-3.12,1.52-.91,3.04-1.61,4.56-2.11,1.52-.5,2.92-.71,4.21-.64,1.02,.07,2.01,.37,2.97,.92,.96,.55,1.78,1.22,2.45,2.03,.68,.81,1.16,1.69,1.44,2.65,.28,.96,.26,1.87-.07,2.73-.33,.86-.78,1.68-1.34,2.45-.56,.78-1.15,1.5-1.76,2.16-.61,.66-1.21,1.26-1.81,1.78-.59,.53-1.09,.96-1.49,1.29,.96,.1,1.91,.49,2.85,1.16,.94,.68,1.68,1.46,2.21,2.35,1.22-.43,2.34-.83,3.35-1.19,1.01-.36,2.09-.59,3.25-.69,.2-.03,.34,.09,.42,.37,.08,.28,.12,.61,.1,.99-.02,.38-.11,.74-.27,1.07Z"/>
      <path d="M16.51,36.04c-1.29,1.26-2.43,2.53-3.42,3.82-.99,1.29-1.62,2.45-1.88,3.47,.53-.23,1.19-.65,1.98-1.26,.79-.61,1.64-1.33,2.53-2.16,.89-.83,1.8-1.71,2.73-2.65,.92-.94,1.78-1.87,2.55-2.8,.78-.92,1.44-1.78,1.98-2.58,.55-.79,.9-1.44,1.07-1.93-.99,.63-2.17,1.49-3.54,2.58-1.37,1.09-2.7,2.26-3.99,3.52Z"/>
      <path d="M27.79,9.13c.18-.83-.06-1.44-.72-1.83-.3-.2-.76-.26-1.39-.17-.63,.08-1.32,.25-2.08,.5-.76,.25-1.54,.57-2.35,.97-.81,.4-1.56,.84-2.25,1.34,.2,.03,.45,.12,.74,.25,.3,.13,.56,.31,.79,.52,.23,.22,.4,.45,.5,.72,.1,.26,.08,.53-.05,.79-.43,.83-.87,1.73-1.31,2.7-.45,.97-.88,1.97-1.31,2.97-.43,1.01-.85,1.99-1.26,2.95-.41,.96-.79,1.82-1.11,2.58,.4-.43,1.04-1.07,1.93-1.93,.89-.86,1.86-1.82,2.9-2.87,1.04-1.06,2.07-2.17,3.1-3.35,1.02-1.17,1.88-2.28,2.58-3.32,.69-1.04,1.13-1.97,1.31-2.8Z"/>
      <path class="cls-1" d="M36.68,21.32c-1.16,.1-2.24,.33-3.25,.69-1.01,.36-2.12,.76-3.35,1.19-.53-.89-1.26-1.68-2.21-2.35-.94-.68-1.89-1.07-2.85-1.16,.4-.33,.89-.76,1.49-1.29,.59-.53,1.2-1.12,1.81-1.78,.61-.66,1.2-1.38,1.76-2.16,.56-.78,1.01-1.59,1.34-2.45,.33-.86,.35-1.77,.07-2.73-.28-.96-.76-1.84-1.44-2.65-.68-.81-1.5-1.49-2.45-2.03-.96-.55-1.95-.85-2.97-.92-1.29-.07-2.69,.15-4.21,.64-1.52,.5-3.04,1.2-4.56,2.11-1.52,.91-3,1.95-4.44,3.12-1.44,1.17-2.72,2.39-3.84,3.64-1.12,1.26-2.04,2.49-2.75,3.72-.71,1.22-1.1,2.33-1.16,3.32-.07,1.16,.21,2.11,.84,2.85,.63,.74,1.35,1.26,2.16,1.56,.81,.3,1.58,.36,2.3,.2,.73-.17,1.16-.59,1.29-1.29-1.19,.17-1.88-.1-2.08-.79s0-1.64,.59-2.82c.59-1.19,1.54-2.53,2.82-4.01,1.29-1.49,2.81-2.92,4.56-4.31-.5,1.06-1.11,2.43-1.83,4.11-.73,1.68-1.45,3.43-2.18,5.23-.73,1.8-1.41,3.57-2.06,5.3-.64,1.73-1.15,3.18-1.51,4.34-.2,.56-.17,1.05,.1,1.46,.26,.41,.63,.74,1.09,.97,.36,.17,.75,.25,1.16,.25s.83-.28,1.26-.84c.23-.33,.63-.83,1.19-1.49,.56-.66,1.21-1.37,1.96-2.13,.74-.76,1.54-1.54,2.38-2.33,.84-.79,1.68-1.49,2.53-2.08,.84-.59,1.64-1.04,2.4-1.34,.76-.3,1.4-.35,1.93-.15,.26,.1,.46,.28,.59,.55,.13,.26,.22,.53,.27,.79,.05,.26,.07,.51,.05,.74-.02,.23-.04,.36-.07,.4-1.29,.69-2.72,1.59-4.29,2.68-1.57,1.09-3.13,2.29-4.68,3.59-1.55,1.31-3.02,2.68-4.41,4.14-1.39,1.45-2.54,2.87-3.47,4.26-1.02,1.59-1.53,2.96-1.51,4.11,.02,1.16,.41,2.01,1.19,2.55,.78,.55,1.86,.73,3.25,.55,1.39-.18,2.92-.82,4.61-1.91,1.78-1.12,3.5-2.45,5.15-3.99,1.65-1.54,3.13-3.16,4.44-4.88,1.3-1.72,2.39-3.45,3.27-5.2,.87-1.75,1.41-3.42,1.61-5.01,.63-.33,1.45-.68,2.48-1.04,1.02-.36,2.06-.66,3.12-.89,.33-.07,.58-.26,.74-.59,.16-.33,.26-.69,.27-1.07,.02-.38-.02-.71-.1-.99-.08-.28-.22-.4-.42-.37Zm-12.79-6.07c-1.02,1.17-2.06,2.29-3.1,3.35-1.04,1.06-2.01,2.02-2.9,2.87-.89,.86-1.54,1.5-1.93,1.93,.33-.76,.7-1.62,1.11-2.58,.41-.96,.83-1.94,1.26-2.95,.43-1.01,.87-2,1.31-2.97,.45-.97,.88-1.87,1.31-2.7,.13-.26,.15-.53,.05-.79-.1-.26-.26-.5-.5-.72-.23-.21-.5-.39-.79-.52-.3-.13-.55-.21-.74-.25,.69-.5,1.44-.94,2.25-1.34,.81-.4,1.59-.72,2.35-.97,.76-.25,1.45-.41,2.08-.5,.63-.08,1.09-.02,1.39,.17,.66,.4,.9,1.01,.72,1.83-.18,.83-.62,1.76-1.31,2.8-.69,1.04-1.55,2.15-2.58,3.32Zm-.92,16.63c-.55,.79-1.21,1.65-1.98,2.58-.78,.93-1.63,1.86-2.55,2.8-.93,.94-1.83,1.83-2.73,2.65-.89,.83-1.73,1.54-2.53,2.16-.79,.61-1.45,1.03-1.98,1.26,.26-1.02,.89-2.18,1.88-3.47,.99-1.29,2.13-2.56,3.42-3.82,1.29-1.26,2.62-2.43,3.99-3.52,1.37-1.09,2.55-1.95,3.54-2.58-.17,.5-.52,1.14-1.07,1.93Z"/>
      <path class="cls-1" d="M40.62,20.65c-.54-1.83-2.06-3-3.88-3-.15,0-.3,0-.44,.02-1.44,.13-2.83,.43-4.11,.89-.3,.11-.6,.22-.92,.33-.01,0-.02-.02-.03-.03,.63-.7,1.24-1.46,1.82-2.26,.74-1.03,1.35-2.14,1.79-3.29,.62-1.62,.68-3.33,.17-5.07-.42-1.44-1.14-2.78-2.14-3.97-.96-1.14-2.12-2.11-3.45-2.87C27.99,.59,26.46,.12,24.87,.02h-.05c-1.72-.09-3.6,.18-5.54,.82-1.77,.58-3.56,1.4-5.3,2.45-1.66,.99-3.3,2.15-4.87,3.43-1.58,1.29-3.01,2.65-4.25,4.04-1.28,1.44-2.36,2.89-3.19,4.32C.66,16.8,.12,18.41,.02,19.99v.03c-.12,2.09,.47,3.97,1.7,5.43,1.04,1.23,2.28,2.12,3.69,2.64,.04,.01,.08,.03,.12,.04-.16,.47-.3,.91-.43,1.31-.55,1.61-.37,3.24,.49,4.59,.43,.68,.97,1.25,1.62,1.72-.62,.77-1.18,1.53-1.68,2.28l-.03,.04c-1.44,2.23-2.13,4.24-2.1,6.16,.03,2.33,1.01,4.28,2.75,5.5,1.21,.85,2.68,1.28,4.37,1.28h0c.47,0,.96-.03,1.46-.1,1.95-.26,3.95-1.06,6.1-2.45,1.96-1.24,3.87-2.72,5.68-4.4,1.8-1.67,3.43-3.47,4.86-5.35,1.44-1.89,2.66-3.84,3.63-5.78,.68-1.37,1.2-2.73,1.55-4.05,.15-.06,.31-.12,.48-.18,.87-.31,1.76-.56,2.66-.76,1.43-.3,2.59-1.2,3.26-2.54,.4-.79,.62-1.65,.66-2.55,.03-.78-.05-1.51-.25-2.19h0Zm-.85,2.14c-.03,.75-.22,1.45-.54,2.11-.52,1.03-1.41,1.73-2.51,1.96-.94,.21-1.88,.48-2.79,.8-.28,.1-.53,.19-.78,.29l-.27,.1-.07,.28c-.33,1.33-.85,2.71-1.54,4.1-.94,1.89-2.13,3.77-3.52,5.61-1.39,1.83-2.98,3.58-4.73,5.21-1.76,1.63-3.61,3.07-5.52,4.28-2.02,1.31-3.87,2.05-5.65,2.29-.46,.06-.9,.09-1.32,.09h0c-1.46,0-2.72-.36-3.74-1.08-1.44-1.01-2.25-2.65-2.28-4.62-.02-1.69,.6-3.5,1.92-5.54l.02-.03c.58-.87,1.25-1.76,2-2.66l.42-.5-.56-.33c-.73-.43-1.33-1-1.79-1.71-.68-1.06-.81-2.35-.37-3.65,.17-.54,.37-1.15,.61-1.82l.19-.55-.56-.16c-.2-.05-.4-.12-.59-.19-1.23-.45-2.32-1.23-3.23-2.32-1.05-1.24-1.55-2.85-1.44-4.65v-.03c.09-1.4,.59-2.86,1.51-4.44,.79-1.37,1.82-2.76,3.06-4.14,1.21-1.35,2.6-2.67,4.13-3.92,1.53-1.25,3.12-2.37,4.74-3.34,1.68-1,3.39-1.79,5.08-2.34,1.59-.52,3.12-.78,4.55-.78,.2,0,.4,0,.58,.01h.04c1.41,.09,2.78,.51,4.08,1.25,1.22,.69,2.28,1.57,3.15,2.61,.9,1.08,1.55,2.28,1.93,3.58,.44,1.51,.39,2.98-.14,4.37-.41,1.06-.97,2.09-1.65,3.04-.62,.86-1.28,1.66-1.95,2.39l-.56,.59,.44,.37c.22,.19,.44,.39,.65,.59l.25,.24,.33-.12c.43-.15,.85-.3,1.24-.45,1.2-.43,2.49-.71,3.85-.83,.11-.01,.22-.02,.33-.02,1.32,0,2.43,.87,2.82,2.22,.16,.56,.23,1.17,.2,1.83Z"/>
    </g>
  </g>
</svg>